<?xml version="1.0" encoding="utf-8"?>
<!-- Generator: Adobe Illustrator 23.1.1, SVG Export Plug-In . SVG Version: 6.00 Build 0)  -->
<svg version="1.1" id="Layer_1" xmlns="http://www.w3.org/2000/svg" xmlns:xlink="http://www.w3.org/1999/xlink" x="0px" y="0px"
     viewBox="0 0 2730 691" style="enable-background:new 0 0 2730 691;" xml:space="preserve">
<style type="text/css">
	.st0{fill:url(#SVGID_1_);}
	.st1{fill:#282828;}
	.st2{fill:url(#SVGID_2_);stroke:url(#SVGID_3_);stroke-width:4;stroke-miterlimit:10;}
	.st3{fill:#c2d800;}
	.st4{fill:url(#SVGID_4_);stroke:url(#SVGID_5_);stroke-width:4;stroke-miterlimit:10;}
	.st5{fill:url(#SVGID_6_);}
	.st6{fill:url(#XMLID_3_);}
	.st7{fill:url(#XMLID_4_);}
	.st8{fill:url(#SVGID_7_);}
</style>
    <g>
	<path class="st3" d="M345.5,0C154.7,0,0,154.7,0,345.5S154.7,691,345.5,691S691,536.3,691,345.5S536.3,0,345.5,0z M445.6,356.1
		l-150,150c-5.2,5.2-13.4,5.8-19.4,1.6c-6-4.3-7.9-12.3-4.6-18.9l52.3-104.5l-73.6-24.5c-4.9-1.6-8.7-5.7-9.9-10.8
		c-1.2-5.1,0.3-10.4,4-14l150-150c5.2-5.2,13.4-5.9,19.4-1.6c6,4.3,7.9,12.3,4.6,18.9l-52.3,104.5l73.6,24.5
		c4.9,1.6,8.7,5.7,9.9,10.8C450.8,347.1,449.3,352.5,445.6,356.1z"/>
        <g>
		<path class="st3" d="M1157.8,334.6c34.4,19.5,51.6,49.2,51.6,88.9c0,36.7-12,65.6-35.9,86.6c-23.9,21-58.6,31.6-104.1,31.6H899.6
			V140.1h159.5c45.1,0,79.6,9.8,103.3,29.3c23.7,19.5,35.6,47.4,35.6,83.8C1198,287.9,1184.6,315.1,1157.8,334.6z M1052.2,238.8
			h-37.9v53.9l44.2-0.6c16.4-2.3,24.7-11.1,24.7-26.4c0-8.8-3.1-15.5-9.2-20.1C1067.9,241.1,1060.6,238.8,1052.2,238.8z M1062.5,443
			c9.2,0,16.8-2.7,23-8c6.1-5.4,9.2-12.2,9.2-20.7c0-16.1-8.6-25.4-25.8-28.1l-54.5-0.6V443H1062.5z"/>
            <path class="st3" d="M1519.9,511.3c-30.2,26.4-69.6,39.6-118.2,39.6c-48.6,0-88-13.2-118.2-39.6c-30.2-26.4-45.3-61-45.3-103.9
			V140.1h114.8v254.8c0,29.8,16.3,44.8,48.8,44.8c32.5,0,48.8-14.9,48.8-44.8V140.1h114.8v267.4
			C1565.2,450.3,1550.1,484.9,1519.9,511.3z"/>
            <path class="st3" d="M1731.6,430.4h132v111.3h-246.7V140.1h114.8V430.4z"/>
            <path class="st3" d="M2316.9,140.1v401.7h-114.8V346.1l-89.5,150.3h-10.3l-89.5-150.3v195.7H1898V140.1h114.8l94.7,163.5
			l94.7-163.5H2316.9z"/>
            <path class="st3" d="M2606.6,541.7l-13.8-51.6H2477l-13.8,51.6h-123.4l128-401.7H2602l128,401.7H2606.6z M2501.6,398.3h66.6
			l-33.3-123.4L2501.6,398.3z"/>
	</g>
</g>
</svg>
