<?xml version="1.0" encoding="utf-8"?>
<!-- Generator: Adobe Illustrator 23.1.1, SVG Export Plug-In . SVG Version: 6.00 Build 0)  -->
<svg version="1.1" id="Layer_1" xmlns="http://www.w3.org/2000/svg" xmlns:xlink="http://www.w3.org/1999/xlink" x="0px" y="0px"
	 viewBox="0 0 512 512" style="enable-background:new 0 0 512 512;" xml:space="preserve">
<style type="text/css">
	.st0{fill:url(#SVGID_1_);}
	.st1{fill:#282828;}
	.st2{fill:url(#SVGID_2_);stroke:url(#SVGID_3_);stroke-width:4;stroke-miterlimit:10;}
	.st3{fill:#FFFFFF;}
	.st4{fill:url(#SVGID_4_);stroke:url(#SVGID_5_);stroke-width:4;stroke-miterlimit:10;}
	.st5{fill:url(#SVGID_6_);}
	.st6{fill:url(#XMLID_3_);}
	.st7{fill:url(#XMLID_4_);}
	.st8{fill:url(#SVGID_7_);}
</style>
<g>
	<g id="XMLID_1_">
		<g>
			<linearGradient id="SVGID_1_" gradientUnits="userSpaceOnUse" x1="307.2" y1="118.18" x2="460.8033" y2="118.18">
				<stop  offset="0" style="stop-color:#C0FFAA"/>
				<stop  offset="1" style="stop-color:#EFFF00"/>
			</linearGradient>
			<path class="st0" d="M455.8,100.6c11.4,29.8,3.1,63.4-20.7,84.6l-44.5-54.1c-0.1-0.1-0.2-0.1-0.3-0.2c-1.6-1.8-3.9-2.9-6.3-2.9
				h-76.8c0-42.4,34.4-76.8,76.8-76.8C415.9,51.2,444.4,70.8,455.8,100.6z"/>
			<path d="M512,284.7v201.7c0,14.1-11.5,25.6-25.6,25.6H25.6C11.5,512,0,500.5,0,486.4V284.7c0-0.7,0.1-1.4,0.2-2.1
				c-0.1-0.3-0.1-0.6-0.2-0.9c0-2.4,1-4.7,2.8-6.3c0.3-0.5,0.7-1,1.1-1.5l112.4-136.5c4.8-5.9,12.1-9.3,19.8-9.3h154.1
				c0-7,0.8-13.9,2.4-20.8l-24.8-8.1c-2.9-0.9-5.1-3.3-5.8-6.3s0.4-6.1,2.6-8.2c2.3-2,5.5-2.7,8.4-1.7l24.7,8
				c5.6-12.8,13.9-24.3,24.5-33.5l-15.4-21.1c-2.8-3.8-1.9-9.1,1.9-11.9c3.8-2.8,9.1-1.9,11.9,1.9L336,47.5
				c12-7.2,25.5-11.6,39.4-12.9v-26c0-4.7,3.8-8.5,8.5-8.5s8.5,3.8,8.5,8.5v26c14,1.3,27.4,5.7,39.4,12.9l15.4-21.1
				c1.8-2.5,4.8-3.8,7.8-3.5c3,0.3,5.7,2.2,6.9,5c1.2,2.8,0.9,6-0.9,8.5l-15.4,21.1c10.5,9.2,18.9,20.7,24.5,33.5l24.7-8
				c2.9-1,6.1-0.3,8.4,1.7c2.3,2.1,3.3,5.2,2.6,8.2c-0.6,3-2.8,5.4-5.8,6.3l-24.8,8.1c3.2,13.6,3.2,27.9,0,41.5l24.8,8.1
				c2.9,0.9,5.1,3.3,5.8,6.3c0.6,3-0.4,6.1-2.6,8.1c-2.3,2.1-5.5,2.7-8.4,1.8l-24.9-8.1c-5.5,12.8-13.7,24.2-24.1,33.4l62.2,75.5
				C510.6,276.9,512,280.7,512,284.7z M494.9,486.4V284.7L384,150L273.1,284.7v210.3h68.3V384c0-14.1,11.5-25.6,25.6-25.6h34.1
				c14.1,0,25.6,11.5,25.6,25.6v110.9h59.7C491.1,494.9,494.9,491.1,494.9,486.4z M435.1,185.2c23.8-21.2,32-54.9,20.7-84.6
				c-11.4-29.8-39.9-49.4-71.8-49.4c-42.4,0-76.8,34.4-76.8,76.8H384c2.4,0,4.7,1.1,6.3,2.9c0.1,0.1,0.2,0.1,0.3,0.2L435.1,185.2z
				 M409.6,494.9V384c0-4.7-3.8-8.5-8.5-8.5h-34.1c-4.7,0-8.5,3.8-8.5,8.5v110.9H409.6z M260.5,273.1l105.4-128H136.1
				c-2.6,0-5,1.1-6.6,3.1L26.6,273.1H260.5z M256,494.9V290.1H17.1v196.3c0,4.7,3.8,8.5,8.5,8.5H256z"/>
			<path d="M323.5,167.2c1.4,3.1,0.8,6.7-1.4,9.2l-68.3,76.8c-1.6,1.8-3.9,2.9-6.4,2.9H76.8c-3.4,0-6.4-2-7.8-5
				c-1.4-3.1-0.8-6.7,1.4-9.2l38.2-42.9l0.1-0.1l30-33.8c1.6-1.8,3.9-2.9,6.4-2.9h170.7C319.1,162.1,322.1,164.1,323.5,167.2z
				 M281.6,196.3l15.2-17.1h-19.8l-15.2,17.1H281.6z M243.6,238.9l22.8-25.6h-19.8l-22.8,25.6H243.6z M238.9,196.3l15.2-17.1h-19.8
				l-15.2,17.1H238.9z M201,238.9l22.8-25.6h-19.8l-22.8,25.6H201z M196.2,196.3l15.2-17.1h-19.8l-15.2,17.1H196.2z M158.3,238.9
				l22.8-25.6h-19.8l-22.8,25.6H158.3z M153.6,196.3l15.2-17.1h-19.8l-15.2,17.1H153.6z M115.6,238.9l22.8-25.6h-19.8l-22.8,25.6
				H115.6z"/>
		</g>
	</g>
</g>
</svg>
