<svg height="32" version="1.1" id="Layer_1" xmlns="http://www.w3.org/2000/svg" xmlns:xlink="http://www.w3.org/1999/xlink" x="0px" y="0px"
	 viewBox="0 0 691 691" style="enable-background:new 0 0 691 691;" xml:space="preserve">
<style type="text/css">
	.st0{fill:url(#SVGID_1_);}
	.st1{fill:#282828;}
	.st2{fill:url(#SVGID_2_);stroke:url(#SVGID_3_);stroke-width:4;stroke-miterlimit:10;}
	.st3{fill:#FFFFFF;}
	.st4{fill:url(#SVGID_4_);stroke:url(#SVGID_5_);stroke-width:4;stroke-miterlimit:10;}
	.st5{fill:url(#SVGID_6_);}
</style>
<path class="st3" d="M345.5,0C154.7,0,0,154.7,0,345.5S154.7,691,345.5,691S691,536.3,691,345.5S536.3,0,345.5,0z M445.6,356.1
	l-150,150c-5.2,5.2-13.4,5.8-19.4,1.6c-6-4.3-7.9-12.3-4.6-18.9l52.3-104.5l-73.6-24.5c-4.9-1.6-8.7-5.7-9.9-10.8
	c-1.2-5.1,0.3-10.4,4-14l150-150c5.2-5.2,13.4-5.9,19.4-1.6c6,4.3,7.9,12.3,4.6,18.9l-52.3,104.5l73.6,24.5
	c4.9,1.6,8.7,5.7,9.9,10.8C450.8,347.1,449.3,352.5,445.6,356.1z"/>
</svg>
